# Blender v2.81 (sub 16) OBJ File: 'SAMOLOTV12.blend'
# www.blender.org
mtllib SAMOLOTV12.mtl
o Cube
v 1.329407 0.316081 -6.240393
v 1.330227 0.115619 -6.240417
v 0.491467 -0.838929 0.991087
v 0.551336 -0.920615 0.989320
v 0.333083 -0.719075 -10.372516
v 0.333083 -0.201531 -10.372516
v 5.044766 1.236950 -6.350049
v 5.104117 1.184621 -6.351801
v 5.306831 1.178446 -7.224735
v 5.353818 1.130085 -7.226121
v 1.887837 -0.574948 -10.962901
v 1.887837 -0.345658 -10.962901
v 0.191145 -0.581516 -10.675181
v 0.191145 -0.339090 -10.675181
v 1.511569 -0.319034 -8.306031
v 1.573045 0.017269 -8.307845
v 5.227737 1.157622 -6.784654
v 5.174508 1.207986 -6.783083
v 5.250866 1.079204 -7.321399
v 4.992073 1.147238 -6.348495
v 4.831146 1.188339 -6.343745
v 5.115336 1.092680 -7.404480
v 4.971841 1.140980 -6.868886
v 4.962889 1.093126 -6.623914
v 5.072383 0.653992 -6.850382
v 5.205096 0.616610 -7.363758
v 5.181011 0.604707 -7.386046
v 4.942260 0.690645 -6.347024
v 5.047225 0.643684 -6.861026
v 4.916048 0.681899 -6.346251
v 1.141220 0.250554 -5.367130
v 1.217329 0.032452 -5.410629
v 0.382633 -1.000000 0.994299
v 0.615367 1.088056 -6.325203
v 0.154612 0.006576 -10.367248
v 0.159789 -0.201531 -10.367400
v 0.059267 -0.158623 -10.671289
v 0.282278 -0.112656 -6.209487
v 0.382633 -0.802170 0.994299
v 0.154612 -0.927182 -10.367248
v 0.159789 -0.719075 -10.367400
v 0.059267 -0.761983 -10.671289
v 0.106927 -0.336015 -8.264574
v 0.801841 1.045449 -8.285084
v 0.427889 0.698821 -5.172511
v 0.305489 -0.208820 -5.423807
v 2.537472 0.330450 -6.498913
v 2.986556 0.139243 -9.402644
v 3.001505 -0.032483 -9.403086
v 2.510413 0.428480 -6.498114
v 2.335957 0.269503 -7.984850
v 2.770521 0.150772 -7.824259
v 3.647809 0.286936 -8.804959
v 3.216199 0.640671 -6.518945
v 3.711628 0.724328 -7.402428
v 3.445647 0.427406 -7.538625
v 3.240859 0.565136 -6.519673
v 3.624057 0.424767 -8.804258
v 2.718869 0.903033 -7.822735
v 3.393562 1.126100 -7.537088
v 0.814542 -0.377775 -1.701625
v 0.881608 -0.517203 -1.721066
v 0.403998 -0.151978 -1.524753
v 0.414798 -0.665111 -1.724258
v 0.808754 -0.400082 -1.571663
v 0.408402 -0.183429 -1.403061
v 0.418679 -0.681310 -1.592915
v 0.875388 -0.536717 -1.590246
v 0.868233 -0.524056 -1.656297
v 0.800595 -0.395517 -1.638820
v 0.401120 -0.182979 -1.467564
v 0.416438 -0.656831 -1.656551
v 1.307437 0.324551 -8.300006
v 1.142040 0.529373 -6.234863
v 0.276754 -0.310540 -10.738113
v 0.276754 -0.610066 -10.738113
v 0.110378 -0.082864 -10.733202
v 0.110378 -0.837742 -10.733202
v -1.290984 0.316081 -6.163054
v -1.291803 0.115619 -6.163029
v -0.028008 -0.838929 1.006419
v -0.087877 -0.920615 1.008186
v -0.540096 -0.719075 -10.346744
v -0.540096 -0.201531 -10.346744
v -5.006343 1.236950 -6.053397
v -5.065694 1.184621 -6.051645
v -5.319538 1.178446 -6.911104
v -5.366525 1.130085 -6.909717
v -2.126963 -0.574948 -10.844407
v -2.126963 -0.345658 -10.844407
v -0.416256 -0.581516 -10.657254
v -0.416256 -0.339090 -10.657254
v 0.019212 -0.123635 -6.201723
v 0.231729 -0.802170 0.998753
v 0.231729 -1.000000 0.998753
v 0.007175 1.226319 -6.609534
v -0.103507 -0.979156 -10.359630
v -0.103507 0.058550 -10.359630
v -0.103507 -0.719075 -10.359630
v -0.103507 -0.201531 -10.359630
v -0.112555 -0.811391 -10.666218
v -0.114337 -0.018248 -10.726570
v -1.594655 -0.319034 -8.214353
v -1.656131 0.017269 -8.212539
v -5.214627 1.157622 -6.476454
v -5.161397 1.207986 -6.478024
v -0.041543 1.175882 -8.260192
v -0.041543 -0.371749 -8.260192
v -5.269371 1.079204 -7.010901
v -4.953649 1.147238 -6.054953
v -4.792723 1.188339 -6.059701
v -5.138978 1.092680 -7.101830
v -4.964144 1.140980 -6.575632
v -4.940760 1.093126 -6.331614
v -5.063419 0.653992 -6.551229
v -5.226179 0.616610 -7.055885
v -5.203451 0.604707 -7.079556
v -4.903836 0.690645 -6.056422
v -5.038932 0.643684 -6.563339
v -4.877625 0.681899 -6.057196
v -1.051621 0.250554 -5.302410
v -1.130163 0.032452 -5.341344
v 0.042401 -0.219260 -5.416042
v 0.064368 0.790243 -4.671742
v 0.080826 -1.000000 1.003207
v -0.583188 1.088056 -6.289829
v -0.361625 0.006576 -10.352012
v -0.366802 -0.201531 -10.351859
v -0.284378 -0.158623 -10.661146
v -0.243855 -0.112656 -6.193958
v 0.080826 -0.802170 1.003207
v -0.361625 -0.927182 -10.352012
v -0.366802 -0.719075 -10.351859
v -0.284378 -0.761983 -10.661146
v -0.190013 -0.336015 -8.255810
v -0.884927 1.045449 -8.235300
v -0.328054 0.698821 -5.150199
v -0.220688 -0.208820 -5.408278
v -2.512193 0.330450 -6.349874
v -3.131750 0.139243 -9.222066
v -3.146699 -0.032483 -9.221624
v -2.485134 0.428480 -6.350673
v -2.398665 0.269503 -7.845110
v -2.823002 0.150772 -7.659170
v -3.756601 0.286936 -8.586423
v -3.190920 0.640671 -6.329843
v -3.737592 0.724328 -7.182569
v -3.480107 0.427406 -7.334216
v -3.215580 0.565136 -6.329114
v -3.732850 0.424767 -8.587124
v -2.771350 0.903033 -7.660694
v -3.428022 1.126100 -7.335753
v -0.509330 -0.377775 -1.662552
v 0.151591 -0.669530 -1.716489
v 0.160889 -0.128136 -1.401443
v -0.577426 -0.517203 -1.678003
v -0.089070 -0.151978 -1.510201
v -0.111617 -0.665111 -1.708721
v -0.495887 -0.400082 -1.533157
v 0.155467 -0.685515 -1.585147
v 0.164316 -0.160741 -1.285340
v -0.086288 -0.183429 -1.388461
v -0.107745 -0.681310 -1.577378
v -0.563501 -0.536717 -1.547778
v -0.560254 -0.524056 -1.614136
v -0.491703 -0.395517 -1.600678
v 0.153588 -0.661139 -1.648812
v 0.162479 -0.160045 -1.347580
v -0.082823 -0.182979 -1.453280
v -0.109260 -0.656831 -1.641036
v -1.390522 0.324551 -8.220378
v -1.103617 0.529373 -6.168583
v -0.505427 -0.310540 -10.715027
v -0.505427 -0.610066 -10.715027
v -0.339051 -0.082864 -10.719938
v -0.339051 -0.837742 -10.719938
v -0.114337 -0.902358 -10.726570
v -0.112555 -0.109215 -10.666218
vt 0.777091 0.236702
vt 0.737309 0.207189
vt 0.928293 0.024210
vt 0.942193 0.036757
vt 0.959330 0.452336
vt 0.944622 0.451604
vt 0.948531 0.198617
vt 0.958533 0.198314
vt 0.080196 0.362137
vt 0.081919 0.389332
vt 0.052924 0.385496
vt 0.062298 0.378121
vt 0.068590 0.067982
vt 0.078656 0.054283
vt 0.106274 0.080114
vt 0.087866 0.100753
vt 0.508874 0.841567
vt 0.554718 0.911639
vt 0.334332 0.988509
vt 0.047486 0.265408
vt 0.041008 0.262843
vt 0.050035 0.221953
vt 0.054919 0.225746
vt 0.069754 0.265209
vt 0.064123 0.311498
vt 0.047508 0.304097
vt 0.048559 0.313092
vt 0.040591 0.304425
vt 0.062634 0.214960
vt 0.078036 0.216103
vt 0.669201 0.059620
vt 0.654490 0.055844
vt 0.511601 0.024701
vt 0.674173 0.042074
vt 0.641046 0.099146
vt 0.510139 0.045472
vt 0.164902 0.067758
vt 0.164704 0.124662
vt 0.152279 0.107630
vt 0.152448 0.084903
vt 0.122386 0.028530
vt 0.131582 0.065210
vt 0.139249 0.026371
vt 0.162694 0.015533
vt 0.180270 0.051724
vt 0.158559 0.059122
vt 0.657097 0.105370
vt 0.681485 0.114828
vt 0.672147 0.138908
vt 0.650105 0.124824
vt 0.367828 0.797508
vt 0.379820 0.806890
vt 0.256253 0.985282
vt 0.235609 0.969240
vt 0.950195 0.018570
vt 0.964459 0.025431
vt 0.955468 0.044123
vt 0.901055 0.433966
vt 0.878884 0.420076
vt 0.922967 0.194580
vt 0.937311 0.197384
vt 0.480564 0.622433
vt 0.502115 0.638966
vt 0.637830 0.711694
vt 0.697552 0.762462
vt 0.075947 0.353831
vt 0.061405 0.378102
vt 0.213538 0.461241
vt 0.144570 0.531729
vt 0.269228 0.146557
vt 0.200931 0.271615
vt 0.266986 0.133306
vt 0.205975 0.376152
vt 0.202389 0.382993
vt 0.055510 0.614754
vt 0.025788 0.400102
vt 0.021911 0.402177
vt 0.028018 0.397609
vt 0.049930 0.385597
vt 0.014570 0.400601
vt 0.028984 0.355320
vt 0.577650 0.677978
vt 0.749494 0.571137
vt 0.732819 0.632614
vt 0.959330 0.911141
vt 0.940070 0.914470
vt 0.930519 0.827450
vt 0.953359 0.829305
vt 0.391396 0.557011
vt 0.454659 0.496817
vt 0.532141 0.557593
vt 0.554728 0.574746
vt 0.912506 0.914706
vt 0.848411 0.806155
vt 0.452105 0.784270
vt 0.253263 0.717868
vt 0.937488 0.017790
vt 0.061792 0.903892
vt 0.181236 0.062464
vt 0.181236 0.129896
vt 0.691553 0.065357
vt 0.697218 0.043288
vt 0.315098 0.971484
vt 0.047741 0.083229
vt 0.070867 0.116153
vt 0.799330 0.253426
vt 0.068801 0.706022
vt 0.181596 0.596744
vt 0.447249 0.275884
vt 0.383334 0.482521
vt 0.274219 0.415018
vt 0.357837 0.275712
vt 0.373939 0.501306
vt 0.268004 0.423734
vt 0.356081 0.112941
vt 0.353313 0.095841
vt 0.275649 0.502527
vt 0.792793 0.575146
vt 0.687938 0.464767
vt 0.798476 0.360615
vt 0.833937 0.495714
vt 0.742490 0.796987
vt 0.862390 0.915692
vt 0.795289 0.907740
vt 0.767089 0.872263
vt 0.598195 0.932946
vt 0.704766 0.993761
vt 0.768492 0.248152
vt 0.790622 0.264794
vt 0.898620 0.446348
vt 0.943744 0.464649
vt 0.814631 0.754977
vt 0.876561 0.431829
vt 0.958796 0.465353
vt 0.728121 0.217360
vt 0.794882 0.259164
vt 0.772627 0.242297
vt 0.943965 0.458136
vt 0.899925 0.440246
vt 0.878029 0.426097
vt 0.958333 0.458886
vt 0.733451 0.212877
vt 0.483089 0.297182
vt 0.408755 0.496511
vt 0.142112 0.111083
vt 0.142096 0.081490
vt 0.158401 0.133320
vt 0.180300 0.140713
vt 0.777091 0.236702
vt 0.942193 0.036757
vt 0.928293 0.024210
vt 0.737309 0.207189
vt 0.959330 0.452336
vt 0.958533 0.198314
vt 0.948531 0.198617
vt 0.944622 0.451604
vt 0.080196 0.362137
vt 0.062298 0.378121
vt 0.052924 0.385496
vt 0.081919 0.389332
vt 0.068590 0.067982
vt 0.087866 0.100753
vt 0.106274 0.080114
vt 0.078656 0.054283
vt 0.508874 0.841567
vt 0.334332 0.988509
vt 0.554718 0.911639
vt 0.047486 0.265408
vt 0.054919 0.225746
vt 0.050035 0.221953
vt 0.041008 0.262843
vt 0.069754 0.265209
vt 0.047508 0.304097
vt 0.064123 0.311498
vt 0.040591 0.304425
vt 0.048559 0.313092
vt 0.062634 0.214960
vt 0.078036 0.216103
vt 0.669201 0.059620
vt 0.674173 0.042074
vt 0.511601 0.024701
vt 0.654490 0.055844
vt 0.510139 0.045472
vt 0.641046 0.099146
vt 0.164902 0.067758
vt 0.152448 0.084903
vt 0.152279 0.107630
vt 0.164704 0.124662
vt 0.131582 0.065210
vt 0.122386 0.028530
vt 0.139249 0.026371
vt 0.158559 0.059122
vt 0.657097 0.105370
vt 0.650105 0.124824
vt 0.367828 0.797508
vt 0.235609 0.969240
vt 0.950195 0.018570
vt 0.901055 0.433966
vt 0.937311 0.197384
vt 0.480564 0.622433
vt 0.637830 0.711694
vt 0.697552 0.762462
vt 0.075947 0.353831
vt 0.061405 0.378102
vt 0.213538 0.461241
vt 0.144570 0.531729
vt 0.269228 0.146557
vt 0.200931 0.271615
vt 0.266986 0.133306
vt 0.205975 0.376152
vt 0.202389 0.382993
vt 0.025788 0.400102
vt 0.055510 0.614754
vt 0.049930 0.385597
vt 0.028018 0.397609
vt 0.021911 0.402177
vt 0.014570 0.400601
vt 0.028984 0.355320
vt 0.732819 0.632614
vt 0.959330 0.911141
vt 0.953359 0.829305
vt 0.930519 0.827450
vt 0.940070 0.914470
vt 0.532141 0.557593
vt 0.454659 0.496817
vt 0.391396 0.557011
vt 0.848411 0.806155
vt 0.912506 0.914706
vt 0.253263 0.717868
vt 0.937488 0.017790
vt 0.061792 0.903892
vt 0.181596 0.596744
vt 0.068801 0.706022
vt 0.447249 0.275884
vt 0.357837 0.275712
vt 0.274219 0.415018
vt 0.383334 0.482521
vt 0.268004 0.423734
vt 0.373939 0.501306
vt 0.353313 0.095841
vt 0.356081 0.112941
vt 0.275649 0.502527
vt 0.792793 0.575146
vt 0.833937 0.495714
vt 0.798476 0.360615
vt 0.687938 0.464767
vt 0.742490 0.796987
vt 0.767089 0.872263
vt 0.795289 0.907740
vt 0.862390 0.915692
vt 0.598195 0.932946
vt 0.704766 0.993761
vt 0.768492 0.248152
vt 0.943744 0.464649
vt 0.898620 0.446348
vt 0.958796 0.465353
vt 0.728121 0.217360
vt 0.772627 0.242297
vt 0.943965 0.458136
vt 0.899925 0.440246
vt 0.958333 0.458886
vt 0.733451 0.212877
vt 0.483089 0.297182
vt 0.408755 0.496511
vt 0.142096 0.081490
vt 0.142112 0.111083
vt 0.158401 0.133320
vn 0.3350 -0.9365 -0.1040
vn 0.8578 0.4799 0.1838
vn -0.9911 0.0246 -0.1308
vn 0.5540 0.8296 -0.0691
vn 0.7148 0.5112 -0.4772
vn 0.6953 0.7011 0.1581
vn -0.2392 0.9602 -0.1440
vn 0.0295 -0.0000 0.9996
vn 0.4875 0.4524 -0.7467
vn -0.3339 0.2634 -0.9051
vn -0.3550 0.0000 -0.9349
vn -0.0295 0.0000 -0.9996
vn 0.9883 0.0000 -0.1523
vn 0.1327 -0.9202 0.3683
vn 0.2107 -0.9402 0.2675
vn 0.1343 0.9572 0.2565
vn 0.1152 -0.9876 0.1066
vn -0.2670 0.9518 -0.1512
vn 0.6688 0.7284 0.1486
vn 0.7771 0.6287 0.0293
vn 0.2983 -0.9375 0.1794
vn -0.2500 0.9517 -0.1781
vn 0.6063 0.2226 -0.7634
vn -0.0562 -0.1359 0.9891
vn -0.2922 0.9503 -0.1075
vn 0.3192 -0.9352 0.1532
vn 0.3207 -0.9350 0.1511
vn 0.3183 -0.9360 0.1505
vn 0.6792 0.0000 -0.7339
vn 0.9071 -0.3247 0.2679
vn 0.9132 -0.3068 0.2684
vn -0.9400 0.0925 -0.3283
vn 0.2764 0.9255 0.2588
vn 0.9697 0.1590 0.1853
vn 0.2311 -0.9683 -0.0947
vn 0.0368 -0.9918 -0.1221
vn 0.6087 0.7552 0.2432
vn 0.1851 0.9825 -0.0183
vn 0.1029 -0.9822 0.1570
vn 0.4921 0.8438 0.2140
vn 0.1520 -0.9707 0.1863
vn -0.3339 -0.2634 -0.9051
vn 0.5540 -0.8296 -0.0691
vn 0.1305 0.8720 -0.4718
vn 0.1327 0.9202 0.3683
vn 0.0065 -0.9926 -0.1216
vn 0.2849 -0.9484 0.1392
vn -0.1786 0.9754 -0.1291
vn 0.2090 0.0168 0.9778
vn 0.8105 0.0309 -0.5849
vn -0.2124 0.9628 -0.1669
vn 0.2450 -0.9483 0.2017
vn 0.3183 -0.9353 0.1549
vn -0.2874 0.9553 -0.0693
vn 0.6576 0.0850 -0.7486
vn -0.2372 0.9522 -0.1925
vn 0.3105 -0.9325 0.1843
vn -0.3899 -0.0000 0.9209
vn -0.0324 0.8864 -0.4618
vn 0.7996 0.5751 -0.1728
vn -0.7404 0.5473 -0.3901
vn 0.0244 -0.9922 -0.1223
vn 0.5505 0.8127 0.1908
vn 0.3987 0.8895 0.2233
vn 0.9275 0.3469 0.1391
vn 0.2710 -0.9549 -0.1217
vn 0.0045 -0.9335 -0.3584
vn 0.4658 0.8846 -0.0209
vn 0.0951 0.9955 0.0022
vn 0.8889 0.4560 -0.0432
vn 0.2809 -0.9171 -0.2830
vn 0.2919 -0.9558 0.0362
vn 0.8756 0.4036 0.2653
vn 0.3174 0.8235 0.4702
vn 0.5610 0.7366 0.3779
vn 0.0200 -0.9924 0.1217
vn 0.7543 0.6565 -0.0053
vn 0.2579 0.9488 -0.1826
vn 0.6580 0.6745 0.3348
vn -0.5923 0.0000 -0.8057
vn -0.4828 -0.3354 -0.8089
vn -0.1812 0.5462 -0.8179
vn -0.1812 -0.5462 -0.8179
vn -0.4828 0.3354 -0.8090
vn -0.3405 -0.9365 -0.0841
vn -0.8455 0.4799 0.2340
vn 0.9817 0.0246 -0.1890
vn -0.5571 0.8296 -0.0363
vn -0.7417 0.5112 -0.4343
vn -0.6848 0.7011 0.1989
vn 0.2303 0.9602 -0.1579
vn -0.5307 0.4524 -0.7167
vn 0.2799 0.2634 -0.9232
vn 0.2992 0.0000 -0.9542
vn -0.9956 0.0000 -0.0937
vn -0.1108 -0.9202 0.3755
vn -0.1946 -0.9402 0.2794
vn -0.1189 0.9572 0.2639
vn -0.1088 -0.9876 0.1132
vn 0.2577 0.9518 -0.1667
vn -0.6589 0.7284 0.1878
vn -0.7741 0.6287 0.0751
vn -0.2872 -0.9375 0.1967
vn 0.2391 0.9517 -0.1925
vn -0.6503 0.2226 -0.7263
vn 0.1144 -0.1359 0.9841
vn 0.2854 0.9503 -0.1245
vn -0.3096 -0.9352 0.1718
vn -0.3113 -0.9350 0.1697
vn -0.3088 -0.9360 0.1690
vn -0.7213 -0.0000 -0.6926
vn -0.8897 -0.3247 0.3210
vn -0.8958 -0.3068 0.3217
vn 0.9190 0.0925 -0.3832
vn -0.2607 0.9255 0.2747
vn -0.9571 0.1590 0.2422
vn -0.2363 -0.9683 -0.0809
vn -0.0439 -0.9918 -0.1198
vn -0.5933 0.7552 0.2787
vn -0.1859 0.9825 -0.0073
vn -0.0934 -0.9822 0.1628
vn -0.4787 0.8438 0.2426
vn -0.1408 -0.9707 0.1949
vn 0.2799 -0.2634 -0.9232
vn -0.5572 -0.8296 -0.0363
vn -0.1581 0.8720 -0.4633
vn -0.1108 0.9202 0.3755
vn -0.0136 -0.9926 -0.1210
vn -0.2762 -0.9484 0.1557
vn 0.1707 0.9754 -0.1394
vn -0.1510 0.0168 0.9884
vn -0.8436 0.0309 -0.5361
vn 0.2022 0.9628 -0.1792
vn -0.2327 -0.9483 0.2158
vn -0.3086 -0.9353 0.1734
vn 0.2828 0.9553 -0.0861
vn -0.7006 0.0850 -0.7085
vn 0.2255 0.9522 -0.2062
vn -0.2991 -0.9325 0.2022
vn 0.4435 -0.0000 0.8963
vn 0.0051 0.8864 -0.4629
vn -0.8084 0.5751 -0.1254
vn 0.7162 0.5473 -0.4331
vn -0.0316 -0.9922 -0.1206
vn -0.5383 0.8127 0.2229
vn -0.3849 0.8895 0.2464
vn -0.9177 0.3469 0.1936
vn -0.2777 -0.9549 -0.1055
vn -0.0257 -0.9335 -0.3575
vn -0.4662 0.8846 0.0066
vn -0.0949 0.9955 0.0078
vn -0.8899 0.4560 0.0093
vn -0.2971 -0.9171 -0.2659
vn -0.2893 -0.9558 0.0533
vn -0.8584 0.4036 0.3165
vn -0.2891 0.8235 0.4881
vn -0.5377 0.7366 0.4103
vn -0.0128 -0.9924 0.1226
vn -0.7533 0.6565 0.0392
vn -0.2682 0.9488 -0.1670
vn -0.6371 0.6745 0.3730
vn 0.5437 0.0000 -0.8393
vn 0.4343 -0.3354 -0.8360
vn 0.1326 0.5462 -0.8271
vn 0.1326 -0.5462 -0.8271
vn 0.4343 0.3354 -0.8360
usemtl Material
s off
f 67/1/1 68/2/1 4/3/1 33/4/1
f 68/5/2 65/6/2 3/7/2 4/8/2
f 20/9/3 24/10/3 29/11/3 30/12/3
f 36/13/4 6/14/4 75/15/4 77/16/4
f 44/17/5 73/18/5 35/19/5
f 18/20/6 17/21/6 10/22/6 9/23/6
f 23/24/7 21/25/7 7/26/7 18/20/7
f 21/25/8 20/27/8 8/28/8 7/26/8
f 19/29/9 22/30/9 9/23/9 10/22/9
f 41/31/10 5/32/10 11/33/10 40/34/10
f 5/32/11 6/35/11 12/36/11 11/33/11
f 42/37/12 37/38/12 14/39/12 13/40/12
f 6/14/13 5/41/13 76/42/13 75/15/13
f 41/43/14 99/44/14 177/45/14 78/46/14
f 36/47/12 100/48/12 98/49/12 35/50/12
f 43/51/15 108/52/15 97/53/15 40/54/15
f 33/4/8 39/55/8 94/56/8 95/57/8
f 66/58/16 161/59/16 94/60/16 39/61/16
f 38/62/17 93/63/17 108/52/17 43/51/17
f 22/30/18 23/24/18 18/20/18 9/23/18
f 7/26/19 8/28/19 17/21/19 18/20/19
f 34/64/20 74/65/20 73/18/20 44/17/20
f 8/66/8 20/9/8 30/12/8 28/67/8
f 57/68/21 56/69/21 24/10/21 20/9/21
f 58/70/22 55/71/22 23/24/22 22/30/22
f 53/72/23 58/70/23 22/30/23 19/29/23
f 54/73/24 57/74/24 20/27/24 21/25/24
f 55/71/25 54/73/25 21/25/25 23/24/25
f 56/69/26 53/75/26 19/76/26 24/10/26
f 29/11/27 27/77/27 26/78/27 25/79/27
f 30/12/28 29/11/28 25/79/28 28/67/28
f 19/76/29 10/80/29 26/78/29 27/77/29
f 10/80/30 17/81/30 25/79/30 26/78/30
f 17/81/31 8/66/31 28/67/31 25/79/31
f 24/10/32 19/76/32 27/77/32 29/11/32
f 34/64/33 96/82/33 124/83/33 45/84/33
f 2/85/34 1/86/34 31/87/34 32/88/34
f 38/62/35 2/89/35 32/90/35 46/91/35
f 93/63/36 38/62/36 46/91/36 123/92/36
f 1/86/37 74/93/37 45/94/37 31/87/37
f 96/82/38 34/64/38 44/17/38 107/95/38
f 2/89/39 38/62/39 43/51/39 15/96/39
f 65/6/40 66/58/40 39/61/40 3/7/40
f 4/3/8 3/97/8 39/55/8 33/4/8
f 15/96/41 43/51/41 40/54/41 11/98/41
f 6/35/42 36/47/42 35/50/42 12/36/42
f 5/41/43 41/43/43 78/46/43 76/42/43
f 101/99/12 178/100/12 37/38/12 42/37/12
f 99/101/12 41/31/12 40/34/12 97/102/12
f 107/95/44 44/17/44 35/19/44 98/103/44
f 100/104/45 36/13/45 77/16/45 102/105/45
f 160/106/46 67/1/46 33/4/46 95/57/46
f 15/96/47 11/98/47 49/107/47 52/108/47
f 16/109/48 1/110/48 50/111/48 51/112/48
f 1/110/49 2/113/49 47/114/49 50/111/49
f 11/33/50 12/36/50 48/115/50 49/116/50
f 12/36/51 16/109/51 51/112/51 48/115/51
f 2/89/52 15/96/52 52/108/52 47/117/52
f 52/108/53 49/107/53 53/75/53 56/69/53
f 51/112/54 50/111/54 54/73/54 55/71/54
f 50/111/8 47/114/8 57/74/8 54/73/8
f 49/116/55 48/115/55 58/70/55 53/72/55
f 48/118/56 51/119/56 55/120/56 58/121/56
f 47/117/57 52/108/57 56/69/57 57/68/57
f 51/122/58 55/123/58 60/124/58 59/125/58
f 48/126/59 59/125/59 60/124/59 58/127/59
f 60/124/60 55/123/60 58/127/60
f 51/122/61 59/125/61 48/126/61
f 123/92/62 46/91/62 64/128/62 154/129/62
f 31/87/63 45/94/63 63/130/63 61/131/63
f 45/94/64 124/132/64 155/133/64 63/130/64
f 32/88/65 31/87/65 61/131/65 62/134/65
f 46/91/66 32/90/66 62/135/66 64/128/66
f 167/136/67 72/137/67 67/1/67 160/106/67
f 70/138/68 71/139/68 66/58/68 65/6/68
f 71/139/69 168/140/69 161/59/69 66/58/69
f 69/141/70 70/138/70 65/6/70 68/5/70
f 72/137/71 69/142/71 68/2/71 67/1/71
f 64/128/72 62/135/72 69/142/72 72/137/72
f 62/134/73 61/131/73 70/138/73 69/141/73
f 63/130/74 155/133/74 168/140/74 71/139/74
f 61/131/75 63/130/75 71/139/75 70/138/75
f 154/129/76 64/128/76 72/137/76 167/136/76
f 73/143/77 74/144/77 1/110/77 16/109/77
f 35/50/78 73/143/78 16/109/78 12/36/78
f 45/84/79 74/65/79 34/64/79
f 13/40/80 14/39/80 75/145/80 76/146/80
f 14/39/81 37/38/81 77/147/81 75/145/81
f 101/99/82 42/37/82 78/46/82 177/45/82
f 37/38/83 178/100/83 102/148/83 77/147/83
f 42/37/84 13/40/84 76/146/84 78/46/84
f 163/149/85 125/150/85 82/151/85 164/152/85
f 164/153/86 82/154/86 81/155/86 159/156/86
f 110/157/87 120/158/87 119/159/87 114/160/87
f 128/161/88 175/162/88 173/163/88 84/164/88
f 136/165/89 127/166/89 171/167/89
f 106/168/90 87/169/90 88/170/90 105/171/90
f 113/172/91 106/168/91 85/173/91 111/174/91
f 111/174/8 85/173/8 86/175/8 110/176/8
f 109/177/92 88/170/92 87/169/92 112/178/92
f 133/179/93 132/180/93 89/181/93 83/182/93
f 83/182/94 89/181/94 90/183/94 84/184/94
f 134/185/12 91/186/12 92/187/12 129/188/12
f 84/164/95 173/163/95 174/189/95 83/190/95
f 133/191/96 176/192/96 177/45/96 99/44/96
f 128/193/12 127/194/12 98/49/12 100/48/12
f 135/195/97 132/196/97 97/53/97 108/52/97
f 125/150/8 95/57/8 94/56/8 131/197/8
f 162/198/98 131/199/98 94/60/98 161/59/98
f 130/200/99 135/195/99 108/52/99 93/63/99
f 112/178/100 87/169/100 106/168/100 113/172/100
f 85/173/101 106/168/101 105/171/101 86/175/101
f 126/201/102 136/165/102 171/167/102 172/202/102
f 86/203/8 118/204/8 120/158/8 110/157/8
f 149/205/103 110/157/103 114/160/103 148/206/103
f 150/207/104 112/178/104 113/172/104 147/208/104
f 145/209/105 109/177/105 112/178/105 150/207/105
f 146/210/106 111/174/106 110/176/106 149/211/106
f 147/208/107 113/172/107 111/174/107 146/210/107
f 148/206/108 114/160/108 109/212/108 145/213/108
f 119/159/109 115/214/109 116/215/109 117/216/109
f 120/158/110 118/204/110 115/214/110 119/159/110
f 109/212/111 117/216/111 116/215/111 88/217/111
f 88/217/112 116/215/112 115/214/112 105/218/112
f 105/218/113 115/214/113 118/204/113 86/203/113
f 114/160/114 119/159/114 117/216/114 109/212/114
f 126/201/115 137/219/115 124/83/115 96/82/115
f 80/220/116 122/221/116 121/222/116 79/223/116
f 130/200/117 138/224/117 122/225/117 80/226/117
f 93/63/118 123/92/118 138/224/118 130/200/118
f 79/223/119 121/222/119 137/227/119 172/228/119
f 96/82/120 107/95/120 136/165/120 126/201/120
f 80/226/121 103/229/121 135/195/121 130/200/121
f 159/156/122 81/155/122 131/199/122 162/198/122
f 82/151/8 125/150/8 131/197/8 81/230/8
f 103/229/123 89/231/123 132/196/123 135/195/123
f 84/184/124 90/183/124 127/194/124 128/193/124
f 83/190/125 174/189/125 176/192/125 133/191/125
f 101/99/12 134/185/12 129/188/12 178/100/12
f 99/101/12 97/102/12 132/180/12 133/179/12
f 107/95/126 98/103/126 127/166/126 136/165/126
f 100/104/127 102/105/127 175/162/127 128/161/127
f 160/106/128 95/57/128 125/150/128 163/149/128
f 103/229/129 144/232/129 141/233/129 89/231/129
f 104/234/130 143/235/130 142/236/130 79/237/130
f 79/237/131 142/236/131 139/238/131 80/239/131
f 89/181/132 141/240/132 140/241/132 90/183/132
f 90/183/133 140/241/133 143/235/133 104/234/133
f 80/226/134 139/242/134 144/232/134 103/229/134
f 144/232/135 148/206/135 145/213/135 141/233/135
f 143/235/136 147/208/136 146/210/136 142/236/136
f 142/236/8 146/210/8 149/211/8 139/238/8
f 141/240/137 145/209/137 150/207/137 140/241/137
f 140/243/138 150/244/138 147/245/138 143/246/138
f 139/242/139 149/205/139 148/206/139 144/232/139
f 143/247/140 151/248/140 152/249/140 147/250/140
f 140/251/141 150/252/141 152/249/141 151/248/141
f 152/249/142 150/252/142 147/250/142
f 143/247/143 140/251/143 151/248/143
f 123/92/144 154/129/144 158/253/144 138/224/144
f 121/222/145 153/254/145 157/255/145 137/227/145
f 137/227/146 157/255/146 155/133/146 124/132/146
f 122/221/147 156/256/147 153/254/147 121/222/147
f 138/224/148 158/253/148 156/257/148 122/225/148
f 167/136/149 160/106/149 163/149/149 170/258/149
f 166/259/150 159/156/150 162/198/150 169/260/150
f 169/260/151 162/198/151 161/59/151 168/140/151
f 165/261/152 164/153/152 159/156/152 166/259/152
f 170/258/153 163/149/153 164/152/153 165/262/153
f 158/253/154 170/258/154 165/262/154 156/257/154
f 156/256/155 165/261/155 166/259/155 153/254/155
f 157/255/156 169/260/156 168/140/156 155/133/156
f 153/254/157 166/259/157 169/260/157 157/255/157
f 154/129/158 167/136/158 170/258/158 158/253/158
f 171/263/159 104/234/159 79/237/159 172/264/159
f 127/194/160 90/183/160 104/234/160 171/263/160
f 137/219/161 126/201/161 172/202/161
f 91/186/162 174/265/162 173/266/162 92/187/162
f 92/187/163 173/266/163 175/267/163 129/188/163
f 101/99/164 177/45/164 176/192/164 134/185/164
f 129/188/165 175/267/165 102/148/165 178/100/165
f 134/185/166 176/192/166 174/265/166 91/186/166
